<svg xmlns="http://www.w3.org/2000/svg" version="1.1" xmlns:xlink="http://www.w3.org/1999/xlink" width="512" height="512" x="0" y="0" viewBox="0 0 512 512" style="enable-background:new 0 0 512 512" xml:space="preserve"><g><path d="M501.333 213.333h-192c-5.896 0-10.667 4.771-10.667 10.667s4.771 10.667 10.667 10.667h192c5.896 0 10.667-4.771 10.667-10.667s-4.771-10.667-10.667-10.667zM501.333 320H10.667A10.66 10.66 0 0 0 0 330.667a10.66 10.66 0 0 0 10.667 10.667h490.667a10.66 10.66 0 0 0 10.667-10.667A10.662 10.662 0 0 0 501.333 320zM330.667 426.667h-320A10.66 10.66 0 0 0 0 437.333 10.66 10.66 0 0 0 10.667 448h320a10.66 10.66 0 0 0 10.667-10.667 10.661 10.661 0 0 0-10.667-10.666zM309.333 128h192A10.66 10.66 0 0 0 512 117.333a10.66 10.66 0 0 0-10.667-10.667h-192a10.66 10.66 0 0 0-10.667 10.667A10.662 10.662 0 0 0 309.333 128zM10.667 256h234.667a10.66 10.66 0 0 0 10.667-10.667V74.667A10.662 10.662 0 0 0 245.333 64H10.667A10.66 10.66 0 0 0 0 74.667v170.667A10.66 10.66 0 0 0 10.667 256zm224-21.333H25.75l48.917-48.917 35.125 35.125c4.167 4.167 10.917 4.167 15.083 0s4.167-10.917 0-15.083l-3.125-3.125 48.917-48.917 64 64v16.917zM21.333 85.333h213.333v102.25l-56.458-56.458c-4.167-4.167-10.917-4.167-15.083 0l-56.458 56.458-24.458-24.458c-4.167-4.167-10.917-4.167-15.083 0l-45.792 45.792V85.333z" fill="#000000" opacity="1" data-original="#000000"></path><path d="M106.667 149.333c11.76 0 21.333-9.573 21.333-21.333s-9.573-21.333-21.333-21.333c-11.76 0-21.333 9.573-21.333 21.333s9.572 21.333 21.333 21.333zM117.333 128h-10.656s-.01-.01-.01-.021l10.666.021z" fill="#000000" opacity="1" data-original="#000000"></path></g></svg>