<svg xmlns="http://www.w3.org/2000/svg" version="1.1" xmlns:xlink="http://www.w3.org/1999/xlink" width="512" height="512" x="0" y="0" viewBox="0 0 512 512" style="enable-background:new 0 0 512 512" xml:space="preserve"><g><path d="M491.8 194.89c-6.88-6.88-16.4-10.6-26.13-10.17-8.79.38-16.61 4.12-22.03 10.55l-78.06 92.66-13.39-13.39c-7.42-7.42-18.5-8.86-27.57-3.6l-10.72 6.22V69.3c0-15.94-16.23-29.76-46.94-39.96-28.21-9.38-65.51-14.54-105.01-14.54s-76.8 5.16-105.01 14.54C26.23 39.55 10 53.36 10 69.3v290.99c0 15.23 15.13 28.71 42.99 38.65-20.06 6.65-34.59 25.58-34.59 47.85 0 27.79 22.61 50.41 50.41 50.41h247.95c22.75 0 41.5-17.44 43.6-39.65l55.4-95.47c5.26-9.07 3.82-20.15-3.6-27.57l-13.4-13.4 92.66-78.06c6.43-5.41 10.17-13.24 10.55-22.03.41-9.72-3.29-19.25-10.17-26.13zM353.43 371.93a5.997 5.997 0 0 0-8.26 1.93l-22.44 36.15c-1.95-.27-3.95-.42-5.97-.42-6.53 0-12.74 1.42-18.34 3.99-1.7-3.8-3.84-7.32-6.34-10.49l40.32-40.32c2.34-2.34 2.34-6.14 0-8.48s-6.14-2.34-8.49 0l-40.37 40.37c-8.43-6.51-18.98-10.27-30.3-10.27-2.11 0-4.2.14-6.26.41-.25-.67-.51-1.33-.79-1.98l20.35-12.61a6.002 6.002 0 0 0 1.94-8.26 6.002 6.002 0 0 0-8.26-1.94l-20.21 12.52c-8.14-10.1-20.62-16.48-34.17-16.48-1.47 0-2.93.08-4.36.22l100.71-58.44 86.67 86.67-31.08 53.57c-4.1-10.95-12.47-19.83-23.07-24.61l20.65-33.26c1.75-2.82.89-6.52-1.93-8.27zM60.72 40.73C87.75 31.75 123.7 26.8 161.95 26.8s74.2 4.95 101.23 13.93c24.25 8.06 38.72 18.74 38.72 28.57s-14.48 20.52-38.72 28.57c-27.03 8.98-62.98 13.93-101.23 13.93s-74.2-4.95-101.23-13.93C36.48 89.82 22 79.13 22 69.3s14.48-20.51 38.72-28.57zM22 91.47c7.9 6.71 19.61 12.7 34.94 17.79 28.21 9.38 65.51 14.54 105.01 14.54s76.8-5.16 105.01-14.54c15.32-5.09 27.04-11.08 34.94-17.79v74.83c0 9.87-14.44 20.56-38.64 28.6-26.97 8.96-62.95 13.9-101.31 13.9s-74.34-4.94-101.31-13.9C36.44 186.86 22 176.17 22 166.3zm0 97.05c7.88 6.7 19.57 12.69 34.86 17.77 28.16 9.36 65.48 14.51 105.09 14.51s76.93-5.15 105.09-14.51c15.28-5.08 26.97-11.06 34.86-17.77v74.78c0 9.87-14.44 20.56-38.64 28.6-26.97 8.96-62.95 13.9-101.31 13.9s-74.34-4.94-101.31-13.9C36.44 283.85 22 273.16 22 263.29zm0 171.77v-74.78c7.88 6.7 19.57 12.69 34.86 17.77 28.16 9.36 65.48 14.51 105.09 14.51s76.93-5.15 105.09-14.51c1.57-.52 3.09-1.06 4.59-1.6l-80.52 46.72c-13.83-14.4-32.92-22.69-53.39-22.69-37.55 0-68.64 28.07-73.46 64.32C38.01 381.9 22 370.75 22 360.29zM316.76 485.2H68.81c-21.18 0-38.41-17.23-38.41-38.41 0-19.59 14.75-35.8 33.73-38.11 1.89 15.97 8.88 30.84 20.19 42.58a6 6 0 0 0 4.32 1.84c1.5 0 3-.56 4.16-1.68 2.39-2.3 2.46-6.1.16-8.48-11.2-11.63-17.37-26.94-17.37-43.09 0-34.26 27.87-62.13 62.13-62.13 19 0 36.58 8.51 48.32 23.07-14.23 7.24-24 22.02-24 39.05 0 3.44.4 6.88 1.2 10.2a6.013 6.013 0 0 0 5.83 4.61c.46 0 .93-.05 1.4-.17a6.003 6.003 0 0 0 4.44-7.23c-.58-2.41-.87-4.91-.87-7.42 0-17.54 14.27-31.81 31.81-31.81 12.97 0 24.61 8.04 29.43 19.74-8.87 3.46-16.7 9.44-22.37 17.39-1.92 2.7-1.3 6.44 1.4 8.37s6.45 1.3 8.37-1.4c7.04-9.87 18.46-15.76 30.57-15.76 15.38 0 29.33 9.64 34.92 23.77-7.53 6.47-12.85 15.5-14.6 25.96a6 6 0 0 0 4.93 6.91 6 6 0 0 0 6.91-4.93c2.57-15.36 15.76-26.5 31.36-26.5 17.54 0 31.8 14.27 31.8 31.8-.01 17.56-14.28 31.83-31.81 31.83zm88.61-129.15-10.27 17.71-82.17-82.17 17.71-10.27c4.3-2.49 9.55-1.81 13.06 1.71L403.67 343c3.51 3.5 4.2 8.75 1.7 13.05zm84.61-135.54c-.23 5.39-2.46 10.14-6.29 13.36l-93.45 78.72-16.14-16.14L452.82 203c3.22-3.83 7.97-6.06 13.36-6.29 6.28-.27 12.69 2.22 17.13 6.67 4.45 4.44 6.94 10.85 6.67 17.13zM314.75 333.25a5.99 5.99 0 0 1-1.94 8.26l-19.66 12.18c-.98.61-2.08.9-3.15.9-2.01 0-3.97-1.01-5.11-2.84a5.99 5.99 0 0 1 1.94-8.26l19.66-12.18c2.82-1.74 6.52-.87 8.26 1.94zm-64.61-179.33c-.89-3.19.97-6.5 4.16-7.39 3.96-1.11 7.78-2.3 11.37-3.55 3.13-1.1 6.55.56 7.64 3.69s-.56 6.55-3.69 7.64c-3.82 1.33-7.89 2.6-12.09 3.78a5.992 5.992 0 0 1-7.39-4.17zm-94.19 9.78c0-3.31 2.69-6 6-6 22.59 0 44.21-1.69 64.24-5.02a6 6 0 1 1 1.96 11.84c-20.69 3.44-42.96 5.18-66.21 5.18-3.3 0-5.99-2.69-5.99-6zm94.19 89.45c-.89-3.19.97-6.5 4.16-7.39 3.96-1.11 7.79-2.3 11.37-3.55 3.13-1.09 6.55.56 7.64 3.69s-.56 6.55-3.69 7.64c-3.82 1.33-7.88 2.6-12.08 3.78a6.007 6.007 0 0 1-7.4-4.17zm-94.19 9.77c0-3.31 2.69-6 6-6 22.59 0 44.21-1.69 64.24-5.02 3.27-.54 6.36 1.67 6.9 4.93.54 3.27-1.67 6.36-4.93 6.9-20.68 3.44-42.96 5.18-66.21 5.18-3.31.01-6-2.67-6-5.99z" fill="#000000" opacity="1" data-original="#000000"></path></g></svg>