<svg xmlns="http://www.w3.org/2000/svg" version="1.1" xmlns:xlink="http://www.w3.org/1999/xlink" width="512" height="512" x="0" y="0" viewBox="0 0 64 64" style="enable-background:new 0 0 512 512" xml:space="preserve"><g><g fill="none" stroke="#0A1C28" stroke-linejoin="round" stroke-width="2px"><path stroke-linecap="round" d="m51 47 10-11a2.94 2.94 0 0 0-3-3c-3.2 0-5.35 3.27-7.27 5.43L46 43.75M54 33.67a2.9 2.9 0 0 0-2-.67c-2.52 0-4.38 2-6 3.94" fill="none" opacity="1" stroke="#0A1C28" stroke-width="2px"></path><path stroke-linecap="round" d="M33 54c1-2 4-2 4-2h14a2.1 2.1 0 0 0 2-2c0-2-2.54-4-6-4H33.69a11 11 0 0 1-5.12-2A13.71 13.71 0 0 0 20 41a10.91 10.91 0 0 0-4.88 1.16 28.71 28.71 0 0 1-7.76 2.46A31.81 31.81 0 0 1 3 45v12s2.05-4 8.18-4c4.28 0 8.38 1.46 12.26 3.09A32.71 32.71 0 0 0 36 59a10.2 10.2 0 0 0 5.17-1.21A14.6 14.6 0 0 0 47 52" fill="none" opacity="1" stroke="#0A1C28" stroke-width="2px"></path><path d="M18 41V28M46 28v18" fill="none" opacity="1" stroke="#0A1C28" stroke-width="2px"></path><path stroke-linecap="round" d="M29 28H16v-4a2 2 0 0 1 2-2h28a2 2 0 0 1 2 2v4H35M29.07 12.21C30.69 13.83 32 21 32 21s-7.17-1.31-8.79-2.93a4.14 4.14 0 0 1 5.86-5.86zM34.93 12.21C33.31 13.83 32 21 32 21s7.17-1.31 8.79-2.93a4.14 4.14 0 0 0-5.86-5.86z" fill="none" opacity="1" stroke="#0A1C28" stroke-width="2px"></path><path d="M29 22v22M35 22v24" fill="none" opacity="1" stroke="#0A1C28" stroke-width="2px"></path><g stroke-linecap="round" stroke="#0A1C28" fill="none" stroke-width="2px"><path d="M32 5v1M15 11l1 1M9 26h1M49 11l-1 1M55 26h-1" fill="none" opacity="1" stroke="#0A1C28" stroke-width="2px"></path></g></g></g></svg>