<svg xmlns="http://www.w3.org/2000/svg" version="1.1" xmlns:xlink="http://www.w3.org/1999/xlink" width="512" height="512" x="0" y="0" viewBox="0 0 682.667 682.667" style="enable-background:new 0 0 512 512" xml:space="preserve" class=""><g><defs><clipPath id="a" clipPathUnits="userSpaceOnUse"><path d="M0 512h512V0H0Z" fill="#000000" opacity="1" data-original="#000000"></path></clipPath></defs><path d="m0 0 106.647 129.111L213.293 0Z" style="stroke-linecap: round; stroke-linejoin: round; stroke-miterlimit: 10; stroke-dasharray: none; stroke-opacity: 1;" transform="matrix(1.33333 0 0 -1.33333 241.887 425.42)" fill="none" stroke="#000000" stroke-width="20px" stroke-linecap="round" stroke-linejoin="round" stroke-miterlimit="10" stroke-dasharray="none" stroke-opacity="" data-original="#000000"></path><g clip-path="url(#a)" transform="matrix(1.33333 0 0 -1.33333 0 682.667)"><path d="M0 0c0-20.062-16.265-36.326-36.327-36.326-20.063 0-36.327 16.264-36.327 36.326 0 20.063 16.264 36.327 36.327 36.327C-16.265 36.327 0 20.063 0 0Z" style="stroke-linecap: round; stroke-linejoin: round; stroke-miterlimit: 10; stroke-dasharray: none; stroke-opacity: 1;" transform="translate(249.333 358.373)" fill="none" stroke="#000000" stroke-width="20px" stroke-linecap="round" stroke-linejoin="round" stroke-miterlimit="10" stroke-dasharray="none" stroke-opacity="" data-original="#000000"></path><path d="m0 0-28.894 35.411-75.877-86.78H-3.996" style="stroke-linecap: round; stroke-linejoin: round; stroke-miterlimit: 10; stroke-dasharray: none; stroke-opacity: 1;" transform="translate(222.061 244.305)" fill="none" stroke="#000000" stroke-width="20px" stroke-linecap="round" stroke-linejoin="round" stroke-miterlimit="10" stroke-dasharray="none" stroke-opacity="" data-original="#000000"></path><path d="M0 0h-438.498c-14.774 0-26.751 11.977-26.751 26.751v283.606c0 14.775 11.977 26.751 26.751 26.751H0c14.774 0 26.751-11.976 26.751-26.751V26.751C26.751 11.977 14.774 0 0 0Z" style="stroke-linecap: round; stroke-linejoin: round; stroke-miterlimit: 10; stroke-dasharray: none; stroke-opacity: 1;" transform="translate(475.249 125.264)" fill="none" stroke="#000000" stroke-width="20px" stroke-linecap="round" stroke-linejoin="round" stroke-miterlimit="10" stroke-dasharray="none" stroke-opacity="" data-original="#000000"></path><path d="m0 0 17.072-17.072L0-34.144" style="stroke-linecap: round; stroke-linejoin: round; stroke-miterlimit: 10; stroke-dasharray: none; stroke-opacity: 1;" transform="translate(440.012 310.89)" fill="none" stroke="#000000" stroke-width="20px" stroke-linecap="round" stroke-linejoin="round" stroke-miterlimit="10" stroke-dasharray="none" stroke-opacity="" data-original="#000000"></path><path d="m0 0-17.072 17.072L0 34.144" style="stroke-linecap: round; stroke-linejoin: round; stroke-miterlimit: 10; stroke-dasharray: none; stroke-opacity: 1;" transform="translate(71.988 276.746)" fill="none" stroke="#000000" stroke-width="20px" stroke-linecap="round" stroke-linejoin="round" stroke-miterlimit="10" stroke-dasharray="none" stroke-opacity="" data-original="#000000"></path><path d="M0 0c0-9.412-7.63-17.042-17.042-17.042-9.413 0-17.043 7.63-17.043 17.042 0 9.413 7.63 17.043 17.043 17.043C-7.63 17.043 0 9.413 0 0Z" style="stroke-linecap: round; stroke-linejoin: round; stroke-miterlimit: 10; stroke-dasharray: none; stroke-opacity: 1;" transform="translate(192.751 66.67)" fill="none" stroke="#000000" stroke-width="20px" stroke-linecap="round" stroke-linejoin="round" stroke-miterlimit="10" stroke-dasharray="none" stroke-opacity="" data-original="#000000"></path><path d="M0 0c0-9.412-7.631-17.042-17.043-17.042-9.412 0-17.042 7.63-17.042 17.042 0 9.413 7.63 17.043 17.042 17.043C-7.631 17.043 0 9.413 0 0Z" style="stroke-linecap: round; stroke-linejoin: round; stroke-miterlimit: 10; stroke-dasharray: none; stroke-opacity: 1;" transform="translate(273.043 66.67)" fill="none" stroke="#000000" stroke-width="20px" stroke-linecap="round" stroke-linejoin="round" stroke-miterlimit="10" stroke-dasharray="none" stroke-opacity="" data-original="#000000"></path><path d="M0 0c0-9.412-7.63-17.042-17.043-17.042-9.412 0-17.042 7.63-17.042 17.042 0 9.413 7.63 17.043 17.042 17.043C-7.63 17.043 0 9.413 0 0Z" style="stroke-linecap: round; stroke-linejoin: round; stroke-miterlimit: 10; stroke-dasharray: none; stroke-opacity: 1;" transform="translate(353.334 66.67)" fill="none" stroke="#000000" stroke-width="20px" stroke-linecap="round" stroke-linejoin="round" stroke-miterlimit="10" stroke-dasharray="none" stroke-opacity="" data-original="#000000"></path></g></g></svg>