<svg xmlns="http://www.w3.org/2000/svg" version="1.1" xmlns:xlink="http://www.w3.org/1999/xlink" width="512" height="512" x="0" y="0" viewBox="0 0 64 64" style="enable-background:new 0 0 512 512" xml:space="preserve"><g><path d="M57 16a1 1 0 0 0 1-1v-5a6 6 0 0 0-6-6H12a6 6 0 0 0-6 6v44a6 6 0 0 0 6 6h40a6 6 0 0 0 6-6v-5a1 1 0 0 0-1-1h-9V16Zm-1-6v4h-8v-4a4 4 0 0 1 8 0ZM8 54V10a4 4 0 0 1 4-4h35.54A6 6 0 0 0 46 10v44a6 6 0 0 0 1.54 4H12a4 4 0 0 1-4-4Zm48 0a4 4 0 0 1-8 0v-4h8ZM44 32a1 1 0 0 1-1 1H25a1 1 0 0 1 0-2h18a1 1 0 0 1 1 1Zm-20 5a1 1 0 0 1 1-1h7a1 1 0 0 1 0 2h-7a1 1 0 0 1-1-1Zm20 5a1 1 0 0 1-1 1H25a1 1 0 0 1 0-2h18a1 1 0 0 1 1 1Zm-11 5a1 1 0 0 1-1 1h-7a1 1 0 0 1 0-2h7a1 1 0 0 1 1 1ZM12 9a1 1 0 0 1 1-1h6a1 1 0 0 1 0 2h-6a1 1 0 0 1-1-1Zm23 29a1 1 0 1 1 .71-.29A1.05 1.05 0 0 1 35 38Zm3 0a1 1 0 1 1 .71-.29A1.05 1.05 0 0 1 38 38Zm6-1a1 1 0 0 1-1 1h-2a1 1 0 0 1 0-2h2a1 1 0 0 1 1 1Zm-.29 9.29A1.05 1.05 0 0 1 44 47a1.36 1.36 0 0 1 0 .2.64.64 0 0 1-.06.18.76.76 0 0 1-.09.18l-.12.15-.15.12-.18.09a.64.64 0 0 1-.18.06L43 48h-.2a.64.64 0 0 1-.18-.06l-.18-.09-.15-.12a1 1 0 0 1 1.42-1.42Zm-8 0A1.05 1.05 0 0 1 36 47a1.36 1.36 0 0 1 0 .2.64.64 0 0 1-.06.18.76.76 0 0 1-.09.18 1.58 1.58 0 0 1-.12.15A1.05 1.05 0 0 1 35 48h-.2a.64.64 0 0 1-.18-.06l-.18-.09-.15-.12a1 1 0 0 1 1.42-1.42ZM41 47a1 1 0 0 1-1 1h-2a1 1 0 0 1 0-2h2a1 1 0 0 1 1 1Zm-8 5a1 1 0 0 1-1 1h-7a1 1 0 0 1 0-2h7a1 1 0 0 1 1 1Zm10.71-.71A1.05 1.05 0 0 1 44 52a1 1 0 0 1-.29.71l-.15.12-.18.09a.64.64 0 0 1-.18.06L43 53a1.05 1.05 0 0 1-.71-.29A1 1 0 0 1 42 52a1.05 1.05 0 0 1 .29-.71 1 1 0 0 1 .91-.29.64.64 0 0 1 .18.06l.18.09Zm-8 0A1.05 1.05 0 0 1 36 52a1 1 0 0 1-.62.92.94.94 0 0 1-.76 0 1 1 0 0 1-.33-.21 1.58 1.58 0 0 1-.12-.15.76.76 0 0 1-.09-.18.64.64 0 0 1-.08-.18 1.36 1.36 0 0 1 0-.2 1.05 1.05 0 0 1 .29-.71 1.15 1.15 0 0 1 .33-.21 1 1 0 0 1 .76 0 1.15 1.15 0 0 1 .33.21ZM41 52a1 1 0 0 1-1 1h-2a1 1 0 0 1 0-2h2a1 1 0 0 1 1 1ZM27 26a9 9 0 1 0-9-9 9 9 0 0 0 9 9Zm0-16a7 7 0 1 1-7 7 7 7 0 0 1 7-7Zm1 9a1 1 0 0 0-1-1 3 3 0 0 1-1-5.82V12a1 1 0 0 1 2 0v.18A3 3 0 0 1 30 15a1 1 0 0 1-2 0 1 1 0 1 0-1 1 3 3 0 0 1 1 5.82V22a1 1 0 0 1-2 0v-.18A3 3 0 0 1 24 19a1 1 0 0 1 2 0 1 1 0 0 0 2 0Zm-7 12H11a1 1 0 0 0-1 1v20a1 1 0 0 0 1 1h10a1 1 0 0 0 1-1V32a1 1 0 0 0-1-1Zm-1 2v8h-8v-8Zm-8 18v-8h8v8Z" data-name="12 bill, license, legal, file payment, receipt, payment receipt" fill="#000000" opacity="1" data-original="#000000"></path></g></svg>