<svg xmlns="http://www.w3.org/2000/svg" version="1.1" xmlns:xlink="http://www.w3.org/1999/xlink" width="512" height="512" x="0" y="0" viewBox="0 0 64 64" style="enable-background:new 0 0 512 512" xml:space="preserve"><g><path d="M20 48.998a1 1 0 0 0-1-1h-8.999V23.001a1 1 0 0 0-2 0v25.997a1 1 0 0 0 1 1h10a1 1 0 0 0 1-1zM54.997 22.001a1 1 0 0 0-1 1v24.997h-9a1 1 0 0 0 0 2h10a1 1 0 0 0 1-1V23.001a1 1 0 0 0-1-1zM59.945 18.685l-3-9c-.035-.08-.08-.155-.122-.234a1 1 0 0 0-.245-.262l-7-5a1 1 0 0 0-.58-.186H15a1 1 0 0 0-.581.186l-7 5a1.179 1.179 0 0 0-.367.497l-3 8.999A1.007 1.007 0 0 0 5.002 20h53.994a1.007 1.007 0 0 0 .95-1.316zM15.321 6.003h33.356l4.2 3H11.121zM6.39 18l2.333-6.999h46.554l2.333 7z" fill="#000000" opacity="1" data-original="#000000"></path><path d="M43.998 51.453a2.002 2.002 0 0 1-2-2v-7.999a9.999 9.999 0 1 0-19.998 0v8a2.002 2.002 0 0 1-2 2 2.5 2.5 0 0 0 0 4.999h7.574a4.535 4.535 0 0 0 8.85 0h7.574a2.5 2.5 0 0 0 0-5zm-19.998-2v-7.999a8 8 0 1 1 15.998 0v8a3.953 3.953 0 0 0 .557 2H23.444a3.953 3.953 0 0 0 .556-2zm8 8.544a2.548 2.548 0 0 1-2.34-1.544h4.678a2.548 2.548 0 0 1-2.339 1.544zm11.998-3.544H20a.5.5 0 0 1 0-1h23.998a.5.5 0 1 1 0 1z" fill="#000000" opacity="1" data-original="#000000"></path></g></svg>