<svg xmlns="http://www.w3.org/2000/svg" version="1.1" xmlns:xlink="http://www.w3.org/1999/xlink" width="512" height="512" x="0" y="0" viewBox="0 0 512 512" style="enable-background:new 0 0 512 512" xml:space="preserve" class=""><g><path d="M16.602 504.5V223.72h374.83v155.72M391.432 463.78v40.72" style="stroke-linecap: round; stroke-linejoin: round; stroke-miterlimit: 10;" fill="none" stroke="#000000" stroke-width="15px" stroke-linecap="round" stroke-linejoin="round" stroke-miterlimit="10" data-original="#000000" class=""></path><path d="M57.134 252.751h120.874c6.351 0 11.499 5.148 11.499 11.499v40.636c0 6.351-5.148 11.499-11.499 11.499H57.134c-6.351 0-11.499-5.148-11.499-11.499V264.25c-.001-6.35 5.148-11.499 11.499-11.499zM351.502 475.46c-.14.01-.28.01-.42.01h-121.05c-6.35 0-11.5-5.15-11.5-11.5V359.7c0-6.35 5.15-11.5 11.5-11.5h120.88c6.35 0 11.5 5.15 11.5 11.5v48.76M304.656 69.771H16.606V29.78c0-12.303 9.967-22.28 22.28-22.28h330.269c12.313 0 22.28 9.977 22.28 22.28v39.99H339.76M172.393 178.359h0M204.021 178.359h0M235.649 178.359h0" style="stroke-linecap: round; stroke-linejoin: round; stroke-miterlimit: 10;" fill="none" stroke="#000000" stroke-width="15px" stroke-linecap="round" stroke-linejoin="round" stroke-miterlimit="10" data-original="#000000" class=""></path><path d="M391.436 69.771v153.952H16.606V69.771" style="stroke-linecap: round; stroke-linejoin: round; stroke-miterlimit: 10;" fill="none" stroke="#000000" stroke-width="15px" stroke-linecap="round" stroke-linejoin="round" stroke-miterlimit="10" data-original="#000000" class=""></path><path d="m85.325 178.359-31.612-31.612 31.612-31.613M322.716 178.359l31.613-31.612-31.613-31.613M45.634 367.233h143.872M45.634 411.837h143.872M164.793 456.626h24.713M45.634 456.626h83.986M218.535 262.925h143.872M218.535 307.335h143.872M472.966 382.24l-85.709 85.709-33.118 7.202c-9.717 2.113-18.364-6.534-16.251-16.251l7.202-33.118 85.709-85.709 42.167 42.167zM430.799 340.072l42.166 42.166 17.65-17.65c6.378-6.378 6.378-16.719 0-23.097l-19.07-19.07c-6.378-6.378-16.719-6.378-23.096 0l-17.65 17.651z" style="stroke-linecap: round; stroke-linejoin: round; stroke-miterlimit: 10;" fill="none" stroke="#000000" stroke-width="15px" stroke-linecap="round" stroke-linejoin="round" stroke-miterlimit="10" data-original="#000000" class=""></path><path d="m387.257 467.949-33.118 7.202c-9.717 2.113-18.364-6.534-16.251-16.251l7.202-33.118 42.167 42.167zM45.634 38.635h0" style="stroke-linecap: round; stroke-linejoin: round; stroke-miterlimit: 10;" fill="none" stroke="#000000" stroke-width="15px" stroke-linecap="round" stroke-linejoin="round" stroke-miterlimit="10" data-original="#000000" class=""></path></g></svg>