<svg xmlns="http://www.w3.org/2000/svg" version="1.1" xmlns:xlink="http://www.w3.org/1999/xlink" width="512" height="512" x="0" y="0" viewBox="0 0 59 58" style="enable-background:new 0 0 512 512" xml:space="preserve"><g><g fill="#000" fill-rule="nonzero" transform="translate(-1)"><path d="M56 12.1V3a3 3 0 0 0-3-3H11a7.008 7.008 0 0 0-7 7v20.377a18.765 18.765 0 0 0-2.976 5.457 1.99 1.99 0 0 0 .717 2.251l4.3 3.164C6.024 38.5 6 38.746 6 39s.024.5.038.751l-4.3 3.164a1.989 1.989 0 0 0-.718 2.25 18.853 18.853 0 0 0 3.655 6.316c.376.43.919.677 1.49.676.281 0 .56-.059.817-.172l4.872-2.134c.424.277.864.529 1.317.754l.581 5.293a1.987 1.987 0 0 0 1.59 1.747c2.413.473 4.895.473 7.308 0a1.989 1.989 0 0 0 1.59-1.748l.581-5.293c.453-.225.893-.477 1.317-.754l4.872 2.134c.258.113.536.172.817.172.263 0 .524-.053.767-.156H55a5.006 5.006 0 0 0 5-5V17a5.009 5.009 0 0 0-4-4.9zM11 2h42a1 1 0 0 1 1 1v3H9a1 1 0 1 0 0 2h45v4H11a5 5 0 1 1 0-10zM2.917 33.482a16.707 16.707 0 0 1 3.266-5.635l3.9 1.714a12.988 12.988 0 0 0-3.727 6.447zM19 28c6.075 0 11 4.925 11 11s-4.925 11-11 11S8 45.075 8 39c.007-6.072 4.928-10.993 11-11zm-3.724-1.45.455-4.233a16.87 16.87 0 0 1 6.524 0l.465 4.228a12.88 12.88 0 0 0-7.444 0zm12.631 3.006 3.907-1.722a16.7 16.7 0 0 1 3.259 5.641L31.638 36a12.986 12.986 0 0 0-3.731-6.444zM6.186 50.166a16.7 16.7 0 0 1-3.259-5.641L6.362 42a12.986 12.986 0 0 0 3.731 6.448zm16.083 5.517a16.87 16.87 0 0 1-6.524 0l-.465-4.228a12.88 12.88 0 0 0 7.444 0zm5.641-7.242a12.993 12.993 0 0 0 3.729-6.449l3.444 2.526a16.717 16.717 0 0 1-3.266 5.635zM55 50H34.489a18.78 18.78 0 0 0 2.487-4.834 1.991 1.991 0 0 0-.717-2.251l-4.3-3.164c.014-.25.038-.5.038-.751s-.024-.5-.038-.751l4.3-3.164a1.988 1.988 0 0 0 .718-2.25 18.853 18.853 0 0 0-3.655-6.316 1.988 1.988 0 0 0-2.307-.5l-4.872 2.134a12.851 12.851 0 0 0-1.317-.754l-.582-5.299a1.987 1.987 0 0 0-1.59-1.747 19.075 19.075 0 0 0-7.308 0c-.856.17-1.501.88-1.59 1.748l-.581 5.299c-.455.226-.896.479-1.321.757l-4.868-2.141A2 2 0 0 0 6 25.874V11.89A6.977 6.977 0 0 0 11 14h44a3 3 0 0 1 3 3v10h-5a5 5 0 0 0 0 10h5v10a3 3 0 0 1-3 3zm3-15h-5a3 3 0 0 1 0-6h5z" fill="#000000" opacity="1" data-original="#000000"></path><circle cx="53" cy="32" r="1" fill="#000000" opacity="1" data-original="#000000"></circle><path d="M36 16h-2a1 1 0 0 0 0 2h2a1 1 0 0 0 0-2zM56 17a1 1 0 0 0-1-1H40a1 1 0 0 0 0 2h15a1 1 0 0 0 1-1zM19 48a9 9 0 1 0-9-9 9.011 9.011 0 0 0 9 9zm0-16a7 7 0 1 1-7 7 7.008 7.008 0 0 1 7-7z" fill="#000000" opacity="1" data-original="#000000"></path><path d="M19 42a3 3 0 1 0 0-6 3 3 0 0 0 0 6zm0-4a1 1 0 1 1 0 2 1 1 0 0 1 0-2z" fill="#000000" opacity="1" data-original="#000000"></path></g></g></svg>