<svg xmlns="http://www.w3.org/2000/svg" version="1.1" xmlns:xlink="http://www.w3.org/1999/xlink" width="512" height="512" x="0" y="0" viewBox="0 0 510 510" style="enable-background:new 0 0 512 512" xml:space="preserve" fill-rule="evenodd"><g><path d="M272.888 426.015H15a7 7 0 0 1-7-7V19.556a7 7 0 0 1 7-7h399.459a7 7 0 0 1 7 7v245.197C468.314 280.961 502 325.492 502 377.829c0 66.018-53.598 119.615-119.615 119.615-48.877 0-90.947-29.38-109.497-71.429zM153.578 26.556H22v385.459h245.736a119.468 119.468 0 0 1-4.965-34.186c0-66.017 53.597-119.614 119.614-119.614 8.599 0 16.988.909 25.074 2.637V26.556H275.882v157.592a7 7 0 0 1-10.071 6.29l-51.081-24.937-51.082 24.937a7 7 0 0 1-10.07-6.29zm108.304 0h-94.304v146.385l44.081-21.52a7.001 7.001 0 0 1 6.142 0l44.081 21.52zm120.503 245.659c-58.29 0-105.614 47.324-105.614 105.614 0 58.291 47.324 105.615 105.614 105.615C440.676 483.444 488 436.12 488 377.829c0-58.29-47.324-105.614-105.615-105.614zm26.133 165.948 7.664 2.638c3.653 1.257 5.598 5.244 4.341 8.897s-5.244 5.598-8.897 4.341l-31.519-10.848a7.002 7.002 0 0 1-3.396-10.718l19.517-27.021c2.262-3.132 6.641-3.838 9.773-1.576s3.838 6.641 1.576 9.773l-9.823 13.6c21.064-6.55 36.374-26.212 36.374-49.42 0-28.557-23.185-51.742-51.743-51.742-28.557 0-51.742 23.185-51.742 51.742 0 3.864-3.137 7-7 7-3.864 0-7-3.136-7-7 0-36.284 29.458-65.742 65.742-65.742 36.285 0 65.743 29.458 65.743 65.742 0 27-16.313 50.218-39.61 60.334zM200.799 305.91v48.182a7 7 0 0 1-7 7H66.122a7 7 0 0 1-7-7V305.91a7 7 0 0 1 7-7h127.677a7 7 0 0 1 7 7zm-14 7H73.122v34.182h113.677z" fill="#000000" opacity="1" data-original="#000000"></path></g></svg>