<svg xmlns="http://www.w3.org/2000/svg" version="1.1" xmlns:xlink="http://www.w3.org/1999/xlink" width="512" height="512" x="0" y="0" viewBox="0 0 512 512" style="enable-background:new 0 0 512 512" xml:space="preserve"><g><path d="M376.284 249.656V68.553c0-18.067-18.65-33.554-53.936-44.784C290.399 13.6 248.073 8 203.168 8s-87.231 5.6-119.182 15.77C48.702 35 30.052 50.486 30.052 68.553V388.96c0 18.068 18.65 33.554 53.935 44.784 31.95 10.169 74.276 15.77 119.182 15.77 15.101 0 30.039-.645 44.489-1.907C270.726 481.612 309.691 504 353.788 504c70.668 0 128.16-57.493 128.16-128.161 0-62.995-45.685-115.519-105.664-126.183zM203.168 24c97.344 0 157.116 25.949 157.116 44.553s-59.772 44.553-157.116 44.553S46.052 87.157 46.052 68.553 105.824 24 203.168 24zM46.052 95.293c8.996 6.807 21.699 12.877 37.935 18.045 31.95 10.168 74.276 15.769 119.182 15.769s87.231-5.601 119.181-15.769c16.236-5.168 28.94-11.238 37.936-18.045v80.063c0 18.604-59.772 44.553-157.116 44.553S46.052 193.96 46.052 175.356zm0 106.802c8.996 6.807 21.699 12.877 37.935 18.045 31.95 10.168 74.276 15.769 119.182 15.769s87.231-5.601 119.181-15.769c16.236-5.168 28.94-11.238 37.936-18.045v45.746a129.597 129.597 0 0 0-6.496-.164c-52.861 0-98.346 32.171-117.915 77.96a505.055 505.055 0 0 1-32.706 1.073c-97.344 0-157.116-25.949-157.116-44.553v-80.062zm157.116 231.419c-97.344 0-157.116-25.949-157.116-44.554v-80.063c8.996 6.807 21.699 12.877 37.936 18.044 31.949 10.169 74.275 15.77 119.181 15.77 9.058 0 18.093-.248 27.001-.707a127.85 127.85 0 0 0-4.542 33.835c0 20.238 4.723 39.391 13.112 56.428a503.17 503.17 0 0 1-35.572 1.247zM353.788 488c-61.846 0-112.161-50.315-112.161-112.161s50.315-112.161 112.161-112.161 112.16 50.315 112.16 112.161S415.634 488 353.788 488zm78.776-120.454c1.334 12.671-.425 25.597-5.087 37.378a8.001 8.001 0 0 1-7.44 5.059 7.999 7.999 0 0 1-7.436-10.945c3.769-9.525 5.132-19.557 4.052-29.815-1.768-16.792-9.969-31.891-23.092-42.515-13.124-10.625-29.6-15.501-46.391-13.732a63.16 63.16 0 0 0-19.21 5.162l8.737 1.505a8 8 0 0 1-2.717 15.768l-29.364-5.059a8 8 0 0 1-5.97-11.092l11.949-27.296a8 8 0 0 1 10.536-4.12 7.997 7.997 0 0 1 4.12 10.536l-1.888 4.313a79.2 79.2 0 0 1 22.131-5.63c21.045-2.213 41.687 3.896 58.132 17.209s26.724 32.232 28.938 53.274zm-23.919 57.274a7.997 7.997 0 0 1 .284 7l-11.949 27.297a8.001 8.001 0 0 1-7.332 4.794 7.975 7.975 0 0 1-3.204-.674 7.997 7.997 0 0 1-4.12-10.536l1.57-3.586a79.245 79.245 0 0 1-21.813 5.5 80.734 80.734 0 0 1-8.443.444c-18.066.001-35.45-6.127-49.688-17.653-16.445-13.312-26.723-32.232-28.938-53.274-1.371-13.022.52-26.273 5.467-38.321a7.997 7.997 0 0 1 10.439-4.361 8 8 0 0 1 4.361 10.439c-3.943 9.604-5.45 20.173-4.355 30.567 1.768 16.792 9.969 31.891 23.092 42.515 13.124 10.623 29.6 15.498 46.391 13.732a63.16 63.16 0 0 0 20.179-5.594l-9.706-1.672a8 8 0 1 1 2.717-15.767l29.364 5.059a7.999 7.999 0 0 1 5.684 4.091z" fill="#000000" opacity="1" data-original="#000000"></path></g></svg>