<svg xmlns="http://www.w3.org/2000/svg" version="1.1" xmlns:xlink="http://www.w3.org/1999/xlink" width="512" height="512" x="0" y="0" viewBox="0 0 60 60" style="enable-background:new 0 0 512 512" xml:space="preserve"><g><path d="M49.259 28.906 59.848 2.762A2 2 0 0 0 57.312.12l-56 20.271a2.007 2.007 0 0 0-.222 3.669l13.392 6.861L18.5 45.327a2.273 2.273 0 0 0 1.53 1.573 2.3 2.3 0 0 0 .673.1 2.254 2.254 0 0 0 1.472-.545l6.067-5.127a15.992 15.992 0 1 0 21.017-12.422zM58 2.005 47.326 28.353a15.96 15.96 0 0 0-17.473 8.2l-3.9-2L44.726 16.47a1.992 1.992 0 0 0-2.389-3.154L15.3 29.091 2 22.271zM24.827 36.219l3.96 2.029-6.48 5.476zM16.5 30.705l26.84-15.676-19.784 19.05a.992.992 0 0 0-.255.405l-3.142 9.359zM44 58a14 14 0 1 1 14-14 14.015 14.015 0 0 1-14 14z" fill="#000000" opacity="1" data-original="#000000"></path><path d="M47 50h-2V37a1 1 0 0 0-1.707-.707l-2 2a1 1 0 0 0 1.414 1.414l.293-.293V50h-2a1 1 0 0 0 0 2h6a1 1 0 0 0 0-2z" fill="#000000" opacity="1" data-original="#000000"></path></g></svg>