<svg xmlns="http://www.w3.org/2000/svg" version="1.1" xmlns:xlink="http://www.w3.org/1999/xlink" width="512" height="512" x="0" y="0" viewBox="0 0 682.667 682.667" style="enable-background:new 0 0 512 512" xml:space="preserve"><g><defs><clipPath id="a" clipPathUnits="userSpaceOnUse"><path d="M0 512h512V0H0Z" fill="#000000" opacity="1" data-original="#000000"></path></clipPath></defs><g clip-path="url(#a)" transform="matrix(1.33333 0 0 -1.33333 0 682.667)"><path d="M0 0a7.887 7.887 0 1 0-15.775 0A7.887 7.887 0 0 0 0 0" style="fill-opacity:1;fill-rule:nonzero;stroke:none" transform="translate(74.794 435.973)" fill="#000000" data-original="#000000"></path><path d="M0 0a7.888 7.888 0 1 0-15.775.001A7.888 7.888 0 0 0 0 0" style="fill-opacity:1;fill-rule:nonzero;stroke:none" transform="translate(114.11 435.973)" fill="#000000" data-original="#000000"></path><path d="M0 0a7.887 7.887 0 1 0-15.775 0A7.887 7.887 0 0 0 0 0" style="fill-opacity:1;fill-rule:nonzero;stroke:none" transform="translate(153.426 435.973)" fill="#000000" data-original="#000000"></path><path d="M0 0h460.941" style="stroke-linecap: round; stroke-linejoin: round; stroke-miterlimit: 10; stroke-dasharray: none; stroke-opacity: 1;" transform="translate(7.5 400.64)" fill="none" stroke="#000000" stroke-width="15px" stroke-linecap="round" stroke-linejoin="round" stroke-miterlimit="10" stroke-dasharray="none" stroke-opacity="" data-original="#000000"></path><path d="M0 0h-34.73v-82.425H0" style="stroke-linecap: round; stroke-linejoin: round; stroke-miterlimit: 10; stroke-dasharray: none; stroke-opacity: 1;" transform="translate(246.492 284.97)" fill="none" stroke="#000000" stroke-width="15px" stroke-linecap="round" stroke-linejoin="round" stroke-miterlimit="10" stroke-dasharray="none" stroke-opacity="" data-original="#000000"></path><path d="M0 0h-32.17" style="stroke-linecap: round; stroke-linejoin: round; stroke-miterlimit: 10; stroke-dasharray: none; stroke-opacity: 1;" transform="translate(243.932 243.758)" fill="none" stroke="#000000" stroke-width="15px" stroke-linecap="round" stroke-linejoin="round" stroke-miterlimit="10" stroke-dasharray="none" stroke-opacity="" data-original="#000000"></path><path d="M0 0s-14.926 12.547-32.528 7.244c-16.162-4.868-18.423-23.505-6.73-31.128 0 0 11.474-5.119 24.199-9.813 30.635-11.3 17.439-40.937-7.222-40.937-12.35 0-22.715 5.408-28.989 12.331" style="stroke-linecap: round; stroke-linejoin: round; stroke-miterlimit: 10; stroke-dasharray: none; stroke-opacity: 1;" transform="translate(167.947 276.799)" fill="none" stroke="#000000" stroke-width="15px" stroke-linecap="round" stroke-linejoin="round" stroke-miterlimit="10" stroke-dasharray="none" stroke-opacity="" data-original="#000000"></path><path d="M0 0c0-22.971-18.622-41.593-41.593-41.593-22.97 0-41.592 18.622-41.592 41.593 0 22.971 18.622 41.592 41.592 41.592C-18.622 41.592 0 22.971 0 0Z" style="stroke-linecap: round; stroke-linejoin: round; stroke-miterlimit: 10; stroke-dasharray: none; stroke-opacity: 1;" transform="translate(359.264 243.758)" fill="none" stroke="#000000" stroke-width="15px" stroke-linecap="round" stroke-linejoin="round" stroke-miterlimit="10" stroke-dasharray="none" stroke-opacity="" data-original="#000000"></path><path d="M0 0v-55.269c0-7.861 6.373-14.233 14.233-14.233h290.425" style="stroke-linecap: round; stroke-linejoin: round; stroke-miterlimit: 10; stroke-dasharray: none; stroke-opacity: 1;" transform="translate(46.634 230.7)" fill="none" stroke="#000000" stroke-width="15px" stroke-linecap="round" stroke-linejoin="round" stroke-miterlimit="10" stroke-dasharray="none" stroke-opacity="" data-original="#000000"></path><path d="M0 0v76.402c0 7.861-6.372 14.234-14.232 14.234h-354.207c-7.861 0-14.234-6.373-14.234-14.234V26.493" style="stroke-linecap: round; stroke-linejoin: round; stroke-miterlimit: 10; stroke-dasharray: none; stroke-opacity: 1;" transform="translate(429.307 239.213)" fill="none" stroke="#000000" stroke-width="15px" stroke-linecap="round" stroke-linejoin="round" stroke-miterlimit="10" stroke-dasharray="none" stroke-opacity="" data-original="#000000"></path><path d="M0 0v140.217c0 13.411-10.872 24.282-24.283 24.282h-412.375c-13.411 0-24.283-10.871-24.283-24.282V-204.24c0-13.411 10.872-24.283 24.283-24.283h245.686" style="stroke-linecap: round; stroke-linejoin: round; stroke-miterlimit: 10; stroke-dasharray: none; stroke-opacity: 1;" transform="translate(468.441 312.103)" fill="none" stroke="#000000" stroke-width="15px" stroke-linecap="round" stroke-linejoin="round" stroke-miterlimit="10" stroke-dasharray="none" stroke-opacity="" data-original="#000000"></path><path d="M0 0h99.988c13.411 0 24.283 10.872 24.283 24.283v61.559" style="stroke-linecap: round; stroke-linejoin: round; stroke-miterlimit: 10; stroke-dasharray: none; stroke-opacity: 1;" transform="translate(344.17 83.58)" fill="none" stroke="#000000" stroke-width="15px" stroke-linecap="round" stroke-linejoin="round" stroke-miterlimit="10" stroke-dasharray="none" stroke-opacity="" data-original="#000000"></path><path d="m0 0-38.307-14.76c-3.622-1.395-7.182 2.165-5.787 5.787l14.76 38.307a48.649 48.649 0 0 0 10.998 16.911L156.81 221.392c9.733 9.733 25.514 9.733 35.248 0 9.733-9.734 9.733-25.515 0-35.248L16.912 10.998A48.648 48.648 0 0 0 0 0Z" style="stroke-linecap: round; stroke-linejoin: round; stroke-miterlimit: 10; stroke-dasharray: none; stroke-opacity: 1;" transform="translate(305.143 50.467)" fill="none" stroke="#000000" stroke-width="15px" stroke-linecap="round" stroke-linejoin="round" stroke-miterlimit="10" stroke-dasharray="none" stroke-opacity="" data-original="#000000"></path><path d="m0 0 35.248-35.247" style="stroke-linecap: round; stroke-linejoin: round; stroke-miterlimit: 10; stroke-dasharray: none; stroke-opacity: 1;" transform="translate(286.807 96.712)" fill="none" stroke="#000000" stroke-width="15px" stroke-linecap="round" stroke-linejoin="round" stroke-miterlimit="10" stroke-dasharray="none" stroke-opacity="" data-original="#000000"></path><path d="m0 0 35.247-35.248" style="stroke-linecap: round; stroke-linejoin: round; stroke-miterlimit: 10; stroke-dasharray: none; stroke-opacity: 1;" transform="translate(432.028 241.934)" fill="none" stroke="#000000" stroke-width="15px" stroke-linecap="round" stroke-linejoin="round" stroke-miterlimit="10" stroke-dasharray="none" stroke-opacity="" data-original="#000000"></path></g></g></svg>