<svg xmlns="http://www.w3.org/2000/svg" version="1.1" xmlns:xlink="http://www.w3.org/1999/xlink" width="512" height="512" x="0" y="0" viewBox="0 0 511.995 511.995" style="enable-background:new 0 0 512 512" xml:space="preserve" class=""><g><path d="M323.005 232.762h-38.021a4.552 4.552 0 0 0-4.551 4.551v38.021a4.55 4.55 0 0 0 4.551 4.551h38.021a4.55 4.55 0 0 0 4.551-4.551v-38.021a4.552 4.552 0 0 0-4.551-4.551zM382.064 7.5h-38.021a4.552 4.552 0 0 0-4.551 4.551v38.021a4.55 4.55 0 0 0 4.551 4.551h38.021a4.55 4.55 0 0 0 4.551-4.551V12.051a4.552 4.552 0 0 0-4.551-4.551zM462.632 187.639H424.61a4.552 4.552 0 0 0-4.551 4.551v38.021a4.55 4.55 0 0 0 4.551 4.551h38.021a4.55 4.55 0 0 0 4.551-4.551V192.19a4.55 4.55 0 0 0-4.55-4.551zM484.683 67.898h-66.18a4.55 4.55 0 0 0-4.551 4.551v66.18a4.55 4.55 0 0 0 4.551 4.551h66.18a4.55 4.55 0 0 0 4.551-4.551v-66.18a4.552 4.552 0 0 0-4.551-4.551zM217.142 269.313c-22.551 0-40.896 18.346-40.896 40.896 0 22.551 18.346 40.896 40.896 40.896s40.896-18.346 40.896-40.896-18.346-40.896-40.896-40.896zM321.992 112.869h-19.447a4.552 4.552 0 0 0-4.551 4.551v74.181a4.552 4.552 0 0 0 4.551 4.551h74.181a4.552 4.552 0 0 0 4.551-4.551V117.42a4.552 4.552 0 0 0-4.551-4.551h-19.734" style="stroke-linecap: round; stroke-linejoin: round; stroke-miterlimit: 10;" fill="none" stroke="#000000" stroke-width="15px" stroke-linecap="round" stroke-linejoin="round" stroke-miterlimit="10" data-original="#000000" class=""></path><path d="M252.326 147.511v-21.324c0-5.773-4.68-10.452-10.452-10.452h-49.462c-5.773 0-10.452 4.68-10.452 10.452v26.616c0 4.654-3.079 8.742-7.55 10.037a152.329 152.329 0 0 0-31.163 12.922 10.457 10.457 0 0 1-12.452-1.752l-18.83-18.83c-4.082-4.082-10.7-4.082-14.782 0l-34.975 34.975c-4.082 4.082-4.082 10.7 0 14.782l18.83 18.83a10.46 10.46 0 0 1 1.752 12.452 152.358 152.358 0 0 0-12.921 31.163 10.451 10.451 0 0 1-10.037 7.55H33.214c-5.773 0-10.452 4.68-10.452 10.452v49.462c0 5.773 4.68 10.453 10.453 10.453H59.83a10.45 10.45 0 0 1 10.037 7.55 152.373 152.373 0 0 0 12.921 31.162 10.458 10.458 0 0 1-1.752 12.452l-18.83 18.831c-4.082 4.082-4.082 10.7 0 14.782l34.975 34.975c4.082 4.082 10.7 4.082 14.782 0l18.831-18.83a10.458 10.458 0 0 1 12.452-1.751 152.382 152.382 0 0 0 31.163 12.921 10.451 10.451 0 0 1 7.55 10.037v26.616c0 5.773 4.68 10.452 10.452 10.452h49.462c5.773 0 10.452-4.68 10.452-10.452v-26.616c0-4.654 3.079-8.742 7.55-10.037a152.382 152.382 0 0 0 31.163-12.921 10.458 10.458 0 0 1 12.452 1.751l18.83 18.83c4.082 4.082 10.7 4.082 14.782 0l34.975-34.975c4.082-4.082 4.082-10.7 0-14.782l-18.83-18.83a10.46 10.46 0 0 1-1.751-12.453 152.373 152.373 0 0 0 12.921-31.162 10.451 10.451 0 0 1 10.037-7.55h26.615c5.773 0 10.452-4.68 10.452-10.453v-49.462c0-5.773-4.68-10.452-10.452-10.452h-40.864a4.987 4.987 0 0 0-4.987 4.987v25.209a4.987 4.987 0 0 1-4.987 4.987h-27.219c-2.684 0-4.857 2.126-4.982 4.808-2.531 54.022-47.503 96.945-102.326 96.182-54.399-.757-98.795-45.153-99.552-99.552-.785-56.44 44.73-102.438 100.99-102.438 9.992 0 19.644 1.454 28.758 4.158 3.206.951 6.426-1.423 6.426-4.768v-25.994" style="stroke-linecap: round; stroke-linejoin: round; stroke-miterlimit: 10;" fill="none" stroke="#000000" stroke-width="15px" stroke-linecap="round" stroke-linejoin="round" stroke-miterlimit="10" data-original="#000000" class=""></path></g></svg>