<svg xmlns="http://www.w3.org/2000/svg" version="1.1" xmlns:xlink="http://www.w3.org/1999/xlink" width="512" height="512" x="0" y="0" viewBox="0 0 60 60" style="enable-background:new 0 0 512 512" xml:space="preserve"><g><path d="M26 18a2 2 0 0 0-2-2H6a2 2 0 0 0-2 2v25a5.006 5.006 0 0 0 5 5h15.83a5.129 5.129 0 0 0 5.147-4.514A4.991 4.991 0 0 0 26 38.1zM9 46a3 3 0 0 1-3-3V18h18v20H13a2 2 0 0 0-1.8 1.118 1.956 1.956 0 0 0 .194 2.067A3 3 0 0 1 9 46zm18.986-2.7A3.116 3.116 0 0 1 24.83 46H13a4.973 4.973 0 0 0 1-3 4.907 4.907 0 0 0-1-3h12a3 3 0 0 1 2.986 3.3z" fill="#000000" opacity="1" data-original="#000000"></path><path d="m58.119 12.2-2.59-.336a12.878 12.878 0 0 0-.451-1.1L56.67 8.7a2 2 0 0 0 .04-2.394 14.455 14.455 0 0 0-3.018-3.016 1.993 1.993 0 0 0-2.4.04L49.23 4.922c-.354-.167-.72-.318-1.095-.451L47.8 1.88C47.69 1 47.01.3 46.135.16a14.414 14.414 0 0 0-4.27 0C40.989.3 40.31 1 40.2 1.881l-.336 2.59c-.375.133-.741.284-1.095.451L36.7 3.33a2 2 0 0 0-2.4-.04c-.39.292-.766.604-1.125.935A4.419 4.419 0 0 0 31.81 4H4.19A4.1 4.1 0 0 0 0 8v48a4.1 4.1 0 0 0 4.19 4h27.62A4.1 4.1 0 0 0 36 56V29c.253-.064.49-.177.7-.332l2.067-1.592c.354.167.72.318 1.095.451l.338 2.593a2 2 0 0 0 1.664 1.721c1.415.212 2.855.212 4.27 0a2 2 0 0 0 1.666-1.722l.336-2.59c.375-.133.741-.284 1.095-.451L51.3 28.67a2 2 0 0 0 2.4.04 14.392 14.392 0 0 0 3.018-3.018 2 2 0 0 0-.04-2.395l-1.6-2.067c.166-.354.318-.72.451-1.095l2.59-.336a2 2 0 0 0 1.722-1.664 14.4 14.4 0 0 0 0-4.268 2 2 0 0 0-1.722-1.667zM4.19 6h27.346c-.081.1-.168.2-.246.308a2 2 0 0 0 .04 2.392l1.592 2.067c-.166.354-.318.72-.451 1.1L31.428 12H2V8a2.1 2.1 0 0 1 2.19-2zm23.969 12.133a2 2 0 0 0 1.722 1.667l2.59.336c.133.375.285.741.451 1.095L31.33 23.3a2 2 0 0 0-.04 2.394A13.962 13.962 0 0 0 34 28.465V50H2V14h26.144a14.177 14.177 0 0 0 .015 4.133zM31.81 58H4.19A2.1 2.1 0 0 1 2 56v-4h32v4a2.1 2.1 0 0 1-2.19 2zm26.064-40.189a.028.028 0 0 1-.013 0l-3.215.417a1 1 0 0 0-.829.7 10.23 10.23 0 0 1-.8 1.929 1 1 0 0 0 .088 1.086L55.1 24.5c-.365.495-.766.963-1.2 1.4-.429.43-.89.827-1.381 1.186l-2.567-1.976a1 1 0 0 0-1.086-.088c-.613.332-1.26.6-1.928.8a1 1 0 0 0-.706.83l-.394 3.216a12.294 12.294 0 0 1-3.654 0l-.416-3.215a1 1 0 0 0-.706-.83c-.668-.2-1.315-.468-1.928-.8a1 1 0 0 0-1.086.088L35.5 27.1a12.36 12.36 0 0 1-1.4-1.2c-.43-.43-.827-.891-1.187-1.381l1.976-2.565a1 1 0 0 0 .088-1.086 10.23 10.23 0 0 1-.8-1.929 1 1 0 0 0-.829-.7l-3.216-.4A12.258 12.258 0 0 1 30 16c-.001-.608.045-1.215.139-1.816l3.215-.417a1 1 0 0 0 .829-.7c.2-.669.468-1.316.8-1.93a1 1 0 0 0-.088-1.086L32.9 7.5c.365-.495.766-.963 1.2-1.4.429-.43.89-.827 1.381-1.186l2.567 1.976a1 1 0 0 0 1.086.088c.614-.33 1.26-.597 1.928-.795a1 1 0 0 0 .706-.83l.394-3.216a12.294 12.294 0 0 1 3.654 0l.416 3.215a1 1 0 0 0 .706.83c.668.2 1.315.468 1.928.8a1 1 0 0 0 1.086-.088L52.5 4.9c.496.365.964.766 1.4 1.2.43.43.827.891 1.187 1.381l-1.977 2.566a1 1 0 0 0-.088 1.086c.332.614.6 1.261.8 1.93a1 1 0 0 0 .829.7l3.216.4c.09.608.135 1.222.133 1.837 0 .606-.043 1.21-.126 1.811z" fill="#000000" opacity="1" data-original="#000000"></path><path d="M44 8a8 8 0 1 0 8 8 8.009 8.009 0 0 0-8-8zm0 14a6 6 0 1 1 0-12 6 6 0 0 1 0 12z" fill="#000000" opacity="1" data-original="#000000"></path><path d="M44 13a3 3 0 1 0 0 6 3 3 0 0 0 0-6zm0 4a1 1 0 1 1 0-2 1 1 0 0 1 0 2zM22 10h1a1 1 0 0 0 0-2h-1a1 1 0 0 0 0 2zM13 10h5a1 1 0 0 0 0-2h-5a1 1 0 0 0 0 2zM19 54h-2a1 1 0 0 0 0 2h2a1 1 0 0 0 0-2zM10 23h10a1 1 0 0 0 0-2H10a1 1 0 0 0 0 2zM10 27h10a1 1 0 0 0 0-2H10a1 1 0 0 0 0 2zM10 31h10a1 1 0 0 0 0-2H10a1 1 0 0 0 0 2zM15 34a1 1 0 0 0-1-1h-4a1 1 0 0 0 0 2h4a1 1 0 0 0 1-1z" fill="#000000" opacity="1" data-original="#000000"></path></g></svg>