<svg xmlns="http://www.w3.org/2000/svg" version="1.1" xmlns:xlink="http://www.w3.org/1999/xlink" width="512" height="512" x="0" y="0" viewBox="0 0 128 128" style="enable-background:new 0 0 512 512" xml:space="preserve"><g><circle cx="12.001" cy="34" r="2" fill="#000000" opacity="1" data-original="#000000"></circle><circle cx="20" cy="34" r="2" fill="#000000" opacity="1" data-original="#000000"></circle><circle cx="28" cy="34" r="2" fill="#000000" opacity="1" data-original="#000000"></circle><path d="M50 36h38a2 2 0 0 0 0-4H50a2 2 0 0 0 0 4Z" fill="#000000" opacity="1" data-original="#000000"></path><path d="M6 47h88a6.007 6.007 0 0 0 6-6V27a6.007 6.007 0 0 0-6-6H6a6.007 6.007 0 0 0-6 6v14a6.007 6.007 0 0 0 6 6ZM4 27a2.002 2.002 0 0 1 2-2h88a2.002 2.002 0 0 1 2 2v14a2.002 2.002 0 0 1-2 2H6a2.002 2.002 0 0 1-2-2Z" fill="#000000" opacity="1" data-original="#000000"></path><circle cx="12.001" cy="64" r="2" fill="#000000" opacity="1" data-original="#000000"></circle><circle cx="20" cy="64" r="2" fill="#000000" opacity="1" data-original="#000000"></circle><circle cx="28" cy="64" r="2" fill="#000000" opacity="1" data-original="#000000"></circle><path d="M50 62a2 2 0 0 0 0 4h38a2 2 0 0 0 0-4Z" fill="#000000" opacity="1" data-original="#000000"></path><circle cx="12.001" cy="94" r="2" fill="#000000" opacity="1" data-original="#000000"></circle><circle cx="20" cy="94" r="2" fill="#000000" opacity="1" data-original="#000000"></circle><circle cx="28" cy="94" r="2" fill="#000000" opacity="1" data-original="#000000"></circle><path d="M106.418 40.914a13.959 13.959 0 0 1 8.367 6.789 12.518 12.518 0 0 1 1.45 6.964 1.992 1.992 0 0 0-2.364 2.925l2.736 4.455a2 2 0 0 0 1.704.953h.006a2.001 2.001 0 0 0 1.705-.964l2.689-4.44a1.995 1.995 0 0 0-2.478-2.876 16.492 16.492 0 0 0-1.917-8.895 17.928 17.928 0 0 0-10.734-8.739 2 2 0 0 0-1.164 3.828ZM6 103a2.002 2.002 0 0 1-2-2V87a2.002 2.002 0 0 1 2-2h56v-4H6a6.007 6.007 0 0 0-6 6v14a6.007 6.007 0 0 0 6 6h57.947a9.578 9.578 0 0 1-1.775-4ZM6 77h56v-.235A9.51 9.51 0 0 1 62.775 73H6a2.002 2.002 0 0 1-2-2V57a2.002 2.002 0 0 1 2-2h88a2.002 2.002 0 0 1 2 2v10h4V57a6.007 6.007 0 0 0-6-6H6a6.007 6.007 0 0 0-6 6v14a6.007 6.007 0 0 0 6 6Z" fill="#000000" opacity="1" data-original="#000000"></path><path d="M122 71H72a5.892 5.892 0 0 0-6 5.765v24.47A5.892 5.892 0 0 0 72 107h50a5.892 5.892 0 0 0 6-5.765v-24.47A5.892 5.892 0 0 0 122 71Zm-10.474 20.174-3.254 2.504L119.63 103H74.304l11.395-9.328-3.26-2.5-12.426 10.172c-.003-.037 0-24.693.006-24.75l24.107 18.5a5.024 5.024 0 0 0 5.668.05c.05-.034 24.18-18.601 24.18-18.601.011.074.013 24.8.007 24.855ZM74.513 75h44.909L97.589 91.803a.965.965 0 0 1-1.096.067ZM48 94a2 2 0 0 0 2 2h12v-4H50a2 2 0 0 0-2 2Z" fill="#000000" opacity="1" data-original="#000000"></path></g></svg>