<svg xmlns="http://www.w3.org/2000/svg" version="1.1" xmlns:xlink="http://www.w3.org/1999/xlink" width="512" height="512" x="0" y="0" viewBox="0 0 64 64" style="enable-background:new 0 0 512 512" xml:space="preserve"><g><path d="M14 16a2 2 0 0 1 2 2h2a4 4 0 0 0-3-3.858V12h-2v2.142A3.992 3.992 0 0 0 14 22a2 2 0 1 1-2 2h-2a4 4 0 0 0 3 3.858V30h2v-2.142A3.992 3.992 0 0 0 14 20a2 2 0 0 1 0-4ZM50 38a2 2 0 0 1 2 2h2a4 4 0 0 0-3-3.858V34h-2v2.142A3.992 3.992 0 0 0 50 44a2 2 0 1 1-2 2h-2a4 4 0 0 0 3 3.858V52h2v-2.142A3.992 3.992 0 0 0 50 42a2 2 0 0 1 0-4Z" fill="#000000" opacity="1" data-original="#000000"></path><path d="M50 30a12.7 12.7 0 0 0-1 .051V24h2v3a1 1 0 0 0 1.651.759l7-6a1 1 0 0 0 0-1.518l-7-6A1 1 0 0 0 51 15v3h-2V7a6.006 6.006 0 0 0-6-6H21a6.006 6.006 0 0 0-6 6v1.051A12.7 12.7 0 0 0 14 8a13 13 0 0 0 0 26 12.7 12.7 0 0 0 1-.051V41h-2v-3a1 1 0 0 0-1.651-.759l-7 6a1 1 0 0 0 0 1.518l7 6A1 1 0 0 0 13 50v-3h2v10a6.006 6.006 0 0 0 6 6h22a6.006 6.006 0 0 0 6-6v-1.051A12.7 12.7 0 0 0 50 56a13 13 0 0 0 0-26Zm2-10a1 1 0 0 0 1-1v-1.826L57.463 21 53 24.826V23a1 1 0 0 0-1-1H35v-2ZM40.586 3l-2 2H25.414l-2-2ZM3 21a11 11 0 1 1 11 11A11.013 11.013 0 0 1 3 21Zm9 24a1 1 0 0 0-1 1v1.826L6.537 44 11 40.174V42a1 1 0 0 0 1 1h17v2Zm27 16H25v-1a1 1 0 0 1 1-1h12a1 1 0 0 1 1 1Zm8-4a4 4 0 0 1-4 4h-2v-1a3 3 0 0 0-3-3H26a3 3 0 0 0-3 3v1h-2a4 4 0 0 1-4-4V47h13a1 1 0 0 0 1-1v-4a1 1 0 0 0-1-1H17v-7.363a12.985 12.985 0 0 0 0-25.274V7a3.992 3.992 0 0 1 3.624-3.962l3.669 3.669A1 1 0 0 0 25 7h14a1 1 0 0 0 .707-.293l3.669-3.669A3.992 3.992 0 0 1 47 7v11H34a1 1 0 0 0-1 1v4a1 1 0 0 0 1 1h13v6.363a12.985 12.985 0 0 0 0 25.274Zm3-3a11 11 0 1 1 11-11 11.013 11.013 0 0 1-11 11Z" fill="#000000" opacity="1" data-original="#000000"></path><path d="M28 14h12v2H28zM24 49h12v2H24zM34 10h8v2h-8zM30 52.857h8v2h-8z" fill="#000000" opacity="1" data-original="#000000"></path></g></svg>