<svg xmlns="http://www.w3.org/2000/svg" version="1.1" xmlns:xlink="http://www.w3.org/1999/xlink" width="512" height="512" x="0" y="0" viewBox="0 0 64 64" style="enable-background:new 0 0 512 512" xml:space="preserve"><g><path d="M59 31a1 1 0 0 0-1 1C56.573 66.491 7.423 66.484 6 32A26.03 26.03 0 0 1 32 6a1 1 0 0 0 0-2A28.031 28.031 0 0 0 4 32c1.538 37.145 54.468 37.136 56 0a1 1 0 0 0-1-1z" fill="#000000" opacity="1" data-original="#000000"></path><path d="M33 11.188V7.812a1 1 0 0 0-2 0v3.376a1 1 0 0 0 2 0zM21.076 14.077a1.006 1.006 0 0 0 .865-1.5l-.65-1.125a1 1 0 0 0-1.732 1c.345.513.733 1.699 1.517 1.625zM13.577 20.209l-1.125-.65a1 1 0 0 0-1 1.733c.338.154 1.237.83 1.624.783a1.006 1.006 0 0 0 .501-1.866zM12.188 32a1 1 0 0 0-1-1H7.812a1 1 0 0 0 0 2h3.375a1 1 0 0 0 1-1zM11.953 44.575c.384.05 1.293-.63 1.625-.784a1 1 0 0 0-1.001-1.732l-1.125.65a1.006 1.006 0 0 0 .501 1.866zM20.209 50.423l-.65 1.125a1 1 0 0 0 1.733 1l.649-1.125a1 1 0 0 0-1.732-1zM31 52.813v3.374a1 1 0 0 0 2 0v-3.374a1 1 0 0 0-2 0zM42.425 50.057a1 1 0 0 0-.366 1.366l.65 1.125a1 1 0 1 0 1.732-1l-.65-1.125a.998.998 0 0 0-1.366-.366zM51.423 42.059a1 1 0 0 0-1 1.732c.337.155 1.236.832 1.624.784a1.006 1.006 0 0 0 .501-1.866zM57.188 32a1 1 0 0 0-1-1h-3.376a1 1 0 0 0 0 2h3.376a1 1 0 0 0 1-1zM18.923 22.168a1.004 1.004 0 0 0-1.355 1.432l13.5 18a1.006 1.006 0 0 0 1.56.05l27-31.5a1.002 1.002 0 0 0-1.4-1.418L31.802 30.754zm13.585 10.6 17.846-14.87L31.92 39.401 22.67 27.07l8.643 5.762a1.002 1.002 0 0 0 1.195-.064z" fill="#000000" opacity="1" data-original="#000000"></path></g></svg>